<mxfile host="app.diagrams.net" agent="Mozilla/5.0 (X11; Linux x86_64) AppleWebKit/537.36 (KHTML, like Gecko) Chrome/135.0.0.0 Safari/537.36" version="27.0.2">
  <diagram id="C5RBs43oDa-KdzZeNtuy" name="Page-1">
    <mxGraphModel dx="2867" dy="1324" grid="0" gridSize="10" guides="1" tooltips="1" connect="1" arrows="1" fold="1" page="0" pageScale="1" pageWidth="827" pageHeight="1169" background="none" math="0" shadow="0" adaptiveColors="none">
      <root>
        <mxCell id="WIyWlLk6GJQsqaUBKTNV-0" />
        <mxCell id="WIyWlLk6GJQsqaUBKTNV-1" parent="WIyWlLk6GJQsqaUBKTNV-0" />
        <mxCell id="WIyWlLk6GJQsqaUBKTNV-2" value="" style="rounded=0;html=1;jettySize=auto;orthogonalLoop=1;fontSize=11;endArrow=block;endFill=0;endSize=8;strokeWidth=1;shadow=0;labelBackgroundColor=none;edgeStyle=orthogonalEdgeStyle;strokeColor=#E07A5F;fontColor=default;" parent="WIyWlLk6GJQsqaUBKTNV-1" source="WIyWlLk6GJQsqaUBKTNV-3" target="WIyWlLk6GJQsqaUBKTNV-6" edge="1">
          <mxGeometry relative="1" as="geometry" />
        </mxCell>
        <mxCell id="WIyWlLk6GJQsqaUBKTNV-3" value="Power ON" style="rounded=1;whiteSpace=wrap;html=1;fontSize=12;glass=0;strokeWidth=1;shadow=0;labelBackgroundColor=none;fillColor=#F2CC8F;strokeColor=#E07A5F;fontColor=#393C56;" parent="WIyWlLk6GJQsqaUBKTNV-1" vertex="1">
          <mxGeometry x="160" y="80" width="120" height="40" as="geometry" />
        </mxCell>
        <mxCell id="WIyWlLk6GJQsqaUBKTNV-4" value="Yes" style="rounded=0;html=1;jettySize=auto;orthogonalLoop=1;fontSize=11;endArrow=block;endFill=0;endSize=8;strokeWidth=1;shadow=0;labelBackgroundColor=none;edgeStyle=orthogonalEdgeStyle;entryX=0.5;entryY=0;entryDx=0;entryDy=0;strokeColor=#E07A5F;fontColor=default;" parent="WIyWlLk6GJQsqaUBKTNV-1" source="WIyWlLk6GJQsqaUBKTNV-6" target="WIyWlLk6GJQsqaUBKTNV-12" edge="1">
          <mxGeometry x="-0.8947" y="-20" relative="1" as="geometry">
            <mxPoint as="offset" />
            <mxPoint x="220" y="340" as="targetPoint" />
          </mxGeometry>
        </mxCell>
        <mxCell id="WIyWlLk6GJQsqaUBKTNV-5" value="No" style="edgeStyle=orthogonalEdgeStyle;rounded=0;html=1;jettySize=auto;orthogonalLoop=1;fontSize=11;endArrow=block;endFill=0;endSize=8;strokeWidth=1;shadow=0;labelBackgroundColor=none;entryX=0;entryY=0.5;entryDx=0;entryDy=0;strokeColor=#E07A5F;fontColor=default;" parent="WIyWlLk6GJQsqaUBKTNV-1" source="WIyWlLk6GJQsqaUBKTNV-6" target="0UIjZN4Pylx4sHQfoLfX-0" edge="1">
          <mxGeometry x="-0.9474" y="15" relative="1" as="geometry">
            <mxPoint as="offset" />
            <mxPoint x="470" y="210" as="targetPoint" />
          </mxGeometry>
        </mxCell>
        <mxCell id="WIyWlLk6GJQsqaUBKTNV-6" value="Check BT&lt;div&gt;Connection&lt;/div&gt;&lt;div&gt;-&lt;/div&gt;&lt;div&gt;Is Connected?&lt;/div&gt;" style="rhombus;whiteSpace=wrap;html=1;shadow=0;fontFamily=Helvetica;fontSize=12;align=center;strokeWidth=1;spacing=6;spacingTop=-4;labelBackgroundColor=none;fillColor=#F2CC8F;strokeColor=#E07A5F;fontColor=#393C56;" parent="WIyWlLk6GJQsqaUBKTNV-1" vertex="1">
          <mxGeometry x="150" y="180" width="140" height="110" as="geometry" />
        </mxCell>
        <mxCell id="0UIjZN4Pylx4sHQfoLfX-9" style="edgeStyle=orthogonalEdgeStyle;rounded=0;orthogonalLoop=1;jettySize=auto;html=1;entryX=0.5;entryY=0;entryDx=0;entryDy=0;exitX=0;exitY=0.75;exitDx=0;exitDy=0;labelBackgroundColor=none;strokeColor=#E07A5F;fontColor=default;" edge="1" parent="WIyWlLk6GJQsqaUBKTNV-1" source="WIyWlLk6GJQsqaUBKTNV-12" target="0UIjZN4Pylx4sHQfoLfX-8">
          <mxGeometry relative="1" as="geometry" />
        </mxCell>
        <mxCell id="0UIjZN4Pylx4sHQfoLfX-11" style="edgeStyle=orthogonalEdgeStyle;rounded=0;orthogonalLoop=1;jettySize=auto;html=1;entryX=0;entryY=0.5;entryDx=0;entryDy=0;labelBackgroundColor=none;strokeColor=#E07A5F;fontColor=default;" edge="1" parent="WIyWlLk6GJQsqaUBKTNV-1" source="WIyWlLk6GJQsqaUBKTNV-12" target="0UIjZN4Pylx4sHQfoLfX-10">
          <mxGeometry relative="1" as="geometry">
            <Array as="points">
              <mxPoint x="380" y="520" />
              <mxPoint x="380" y="595" />
            </Array>
          </mxGeometry>
        </mxCell>
        <mxCell id="0UIjZN4Pylx4sHQfoLfX-24" style="edgeStyle=orthogonalEdgeStyle;rounded=0;orthogonalLoop=1;jettySize=auto;html=1;entryX=0;entryY=0.5;entryDx=0;entryDy=0;labelBackgroundColor=none;strokeColor=#E07A5F;fontColor=default;" edge="1" parent="WIyWlLk6GJQsqaUBKTNV-1" source="WIyWlLk6GJQsqaUBKTNV-12" target="0UIjZN4Pylx4sHQfoLfX-23">
          <mxGeometry relative="1" as="geometry">
            <Array as="points">
              <mxPoint x="260" y="375" />
            </Array>
          </mxGeometry>
        </mxCell>
        <mxCell id="0UIjZN4Pylx4sHQfoLfX-65" style="edgeStyle=orthogonalEdgeStyle;rounded=0;orthogonalLoop=1;jettySize=auto;html=1;entryX=0.5;entryY=1;entryDx=0;entryDy=0;exitX=0;exitY=0;exitDx=0;exitDy=0;labelBackgroundColor=none;strokeColor=#E07A5F;fontColor=default;" edge="1" parent="WIyWlLk6GJQsqaUBKTNV-1" source="WIyWlLk6GJQsqaUBKTNV-12" target="0UIjZN4Pylx4sHQfoLfX-64">
          <mxGeometry relative="1" as="geometry">
            <Array as="points">
              <mxPoint x="-15" y="480" />
            </Array>
          </mxGeometry>
        </mxCell>
        <mxCell id="WIyWlLk6GJQsqaUBKTNV-12" value="Show &quot;CONNECTED&quot; menu" style="rounded=1;whiteSpace=wrap;html=1;fontSize=12;glass=0;strokeWidth=1;shadow=0;labelBackgroundColor=none;fillColor=#F2CC8F;strokeColor=#E07A5F;fontColor=#393C56;" parent="WIyWlLk6GJQsqaUBKTNV-1" vertex="1">
          <mxGeometry x="160" y="480" width="120" height="40" as="geometry" />
        </mxCell>
        <mxCell id="0UIjZN4Pylx4sHQfoLfX-5" style="rounded=0;orthogonalLoop=1;jettySize=auto;html=1;entryX=1;entryY=1;entryDx=0;entryDy=0;labelBackgroundColor=none;strokeColor=#E07A5F;fontColor=default;" edge="1" parent="WIyWlLk6GJQsqaUBKTNV-1" source="0UIjZN4Pylx4sHQfoLfX-0" target="0UIjZN4Pylx4sHQfoLfX-13">
          <mxGeometry relative="1" as="geometry">
            <mxPoint x="505" y="125" as="targetPoint" />
            <Array as="points">
              <mxPoint x="655" y="200" />
            </Array>
          </mxGeometry>
        </mxCell>
        <mxCell id="0UIjZN4Pylx4sHQfoLfX-0" value="Show &quot;DISCONNECTED&quot;&lt;div&gt;&lt;span style=&quot;background-color: transparent; color: light-dark(rgb(0, 0, 0), rgb(255, 255, 255));&quot;&gt;&amp;nbsp;menu&lt;/span&gt;&lt;/div&gt;" style="rounded=1;whiteSpace=wrap;html=1;fontSize=12;glass=0;strokeWidth=1;shadow=0;labelBackgroundColor=none;fillColor=#F2CC8F;strokeColor=#E07A5F;fontColor=#393C56;" vertex="1" parent="WIyWlLk6GJQsqaUBKTNV-1">
          <mxGeometry x="590" y="290" width="130" height="50" as="geometry" />
        </mxCell>
        <mxCell id="0UIjZN4Pylx4sHQfoLfX-6" value="Show &quot;SETUP&quot; menu" style="rounded=1;whiteSpace=wrap;html=1;fontSize=12;glass=0;strokeWidth=1;shadow=0;labelBackgroundColor=none;fillColor=#F2CC8F;strokeColor=#E07A5F;fontColor=#393C56;" vertex="1" parent="WIyWlLk6GJQsqaUBKTNV-1">
          <mxGeometry x="760" y="510" width="120" height="40" as="geometry" />
        </mxCell>
        <mxCell id="0UIjZN4Pylx4sHQfoLfX-30" style="edgeStyle=orthogonalEdgeStyle;rounded=0;orthogonalLoop=1;jettySize=auto;html=1;endArrow=block;endFill=0;labelBackgroundColor=none;strokeColor=#E07A5F;fontColor=default;" edge="1" parent="WIyWlLk6GJQsqaUBKTNV-1" source="0UIjZN4Pylx4sHQfoLfX-8" target="0UIjZN4Pylx4sHQfoLfX-29">
          <mxGeometry relative="1" as="geometry" />
        </mxCell>
        <mxCell id="0UIjZN4Pylx4sHQfoLfX-31" value="Yes" style="edgeLabel;html=1;align=center;verticalAlign=middle;resizable=0;points=[];labelBackgroundColor=none;fontColor=#393C56;" vertex="1" connectable="0" parent="0UIjZN4Pylx4sHQfoLfX-30">
          <mxGeometry x="-0.075" y="3" relative="1" as="geometry">
            <mxPoint x="-18" y="-27" as="offset" />
          </mxGeometry>
        </mxCell>
        <mxCell id="0UIjZN4Pylx4sHQfoLfX-62" style="rounded=0;orthogonalLoop=1;jettySize=auto;html=1;endArrow=block;endFill=0;entryX=0.045;entryY=0.988;entryDx=0;entryDy=0;exitX=1;exitY=0;exitDx=0;exitDy=0;entryPerimeter=0;labelBackgroundColor=none;strokeColor=#E07A5F;fontColor=default;" edge="1" parent="WIyWlLk6GJQsqaUBKTNV-1" source="0UIjZN4Pylx4sHQfoLfX-8" target="WIyWlLk6GJQsqaUBKTNV-12">
          <mxGeometry relative="1" as="geometry">
            <mxPoint x="120" y="490" as="targetPoint" />
            <Array as="points">
              <mxPoint x="165" y="580" />
            </Array>
          </mxGeometry>
        </mxCell>
        <mxCell id="0UIjZN4Pylx4sHQfoLfX-63" value="No" style="edgeLabel;html=1;align=center;verticalAlign=middle;resizable=0;points=[];labelBackgroundColor=none;fontColor=#393C56;" vertex="1" connectable="0" parent="0UIjZN4Pylx4sHQfoLfX-62">
          <mxGeometry x="0.2871" y="-2" relative="1" as="geometry">
            <mxPoint x="-37" y="53" as="offset" />
          </mxGeometry>
        </mxCell>
        <mxCell id="0UIjZN4Pylx4sHQfoLfX-8" value="User selects &quot;Read&quot; option" style="rhombus;whiteSpace=wrap;html=1;shadow=0;fontFamily=Helvetica;fontSize=12;align=center;strokeWidth=1;spacing=6;spacingTop=-4;labelBackgroundColor=none;fillColor=#F2CC8F;strokeColor=#E07A5F;fontColor=#393C56;" vertex="1" parent="WIyWlLk6GJQsqaUBKTNV-1">
          <mxGeometry x="20" y="600" width="110" height="90" as="geometry" />
        </mxCell>
        <mxCell id="0UIjZN4Pylx4sHQfoLfX-12" style="edgeStyle=orthogonalEdgeStyle;rounded=0;orthogonalLoop=1;jettySize=auto;html=1;strokeColor=#E07A5F;endArrow=block;endFill=0;exitX=1;exitY=0.5;exitDx=0;exitDy=0;entryX=0.545;entryY=1.071;entryDx=0;entryDy=0;entryPerimeter=0;labelBackgroundColor=none;fontColor=default;" edge="1" parent="WIyWlLk6GJQsqaUBKTNV-1" source="0UIjZN4Pylx4sHQfoLfX-10" target="0UIjZN4Pylx4sHQfoLfX-6">
          <mxGeometry relative="1" as="geometry">
            <mxPoint x="720" y="570" as="targetPoint" />
            <Array as="points">
              <mxPoint x="825" y="595" />
              <mxPoint x="825" y="553" />
            </Array>
          </mxGeometry>
        </mxCell>
        <mxCell id="0UIjZN4Pylx4sHQfoLfX-18" value="Yes" style="edgeLabel;html=1;align=center;verticalAlign=middle;resizable=0;points=[];labelBackgroundColor=none;fontColor=#393C56;" vertex="1" connectable="0" parent="0UIjZN4Pylx4sHQfoLfX-12">
          <mxGeometry x="-0.136" y="-2" relative="1" as="geometry">
            <mxPoint x="-126" y="-17" as="offset" />
          </mxGeometry>
        </mxCell>
        <mxCell id="0UIjZN4Pylx4sHQfoLfX-21" style="edgeStyle=orthogonalEdgeStyle;rounded=0;orthogonalLoop=1;jettySize=auto;html=1;entryX=1;entryY=0.5;entryDx=0;entryDy=0;endArrow=block;endFill=0;exitX=0.5;exitY=0;exitDx=0;exitDy=0;labelBackgroundColor=none;strokeColor=#E07A5F;fontColor=default;" edge="1" parent="WIyWlLk6GJQsqaUBKTNV-1" source="0UIjZN4Pylx4sHQfoLfX-10" target="WIyWlLk6GJQsqaUBKTNV-12">
          <mxGeometry relative="1" as="geometry">
            <mxPoint x="300" y="500" as="targetPoint" />
            <Array as="points">
              <mxPoint x="475" y="500" />
            </Array>
          </mxGeometry>
        </mxCell>
        <mxCell id="0UIjZN4Pylx4sHQfoLfX-22" value="No" style="edgeLabel;html=1;align=center;verticalAlign=middle;resizable=0;points=[];labelBackgroundColor=none;fontColor=#393C56;" vertex="1" connectable="0" parent="0UIjZN4Pylx4sHQfoLfX-21">
          <mxGeometry x="-0.22" y="1" relative="1" as="geometry">
            <mxPoint x="61" y="39" as="offset" />
          </mxGeometry>
        </mxCell>
        <mxCell id="0UIjZN4Pylx4sHQfoLfX-10" value="User selects &quot;Setup&quot; option" style="rhombus;whiteSpace=wrap;html=1;shadow=0;fontFamily=Helvetica;fontSize=12;align=center;strokeWidth=1;spacing=6;spacingTop=-4;labelBackgroundColor=none;fillColor=#F2CC8F;strokeColor=#E07A5F;fontColor=#393C56;" vertex="1" parent="WIyWlLk6GJQsqaUBKTNV-1">
          <mxGeometry x="420" y="550" width="110" height="90" as="geometry" />
        </mxCell>
        <mxCell id="0UIjZN4Pylx4sHQfoLfX-16" style="rounded=0;orthogonalLoop=1;jettySize=auto;html=1;exitX=0.5;exitY=1;exitDx=0;exitDy=0;entryX=0.038;entryY=0.057;entryDx=0;entryDy=0;endArrow=block;endFill=0;entryPerimeter=0;labelBackgroundColor=none;strokeColor=#E07A5F;fontColor=default;" edge="1" parent="WIyWlLk6GJQsqaUBKTNV-1" source="0UIjZN4Pylx4sHQfoLfX-13" target="0UIjZN4Pylx4sHQfoLfX-0">
          <mxGeometry relative="1" as="geometry">
            <mxPoint x="420" y="160" as="targetPoint" />
            <Array as="points">
              <mxPoint x="505" y="200" />
            </Array>
          </mxGeometry>
        </mxCell>
        <mxCell id="0UIjZN4Pylx4sHQfoLfX-13" value="User selects&amp;nbsp;&lt;div&gt;&quot;Setup&quot; option&lt;/div&gt;" style="rhombus;whiteSpace=wrap;html=1;shadow=0;fontFamily=Helvetica;fontSize=12;align=center;strokeWidth=1;spacing=6;spacingTop=-4;labelBackgroundColor=none;fillColor=#F2CC8F;strokeColor=#E07A5F;fontColor=#393C56;" vertex="1" parent="WIyWlLk6GJQsqaUBKTNV-1">
          <mxGeometry x="440" y="40" width="130" height="100" as="geometry" />
        </mxCell>
        <mxCell id="0UIjZN4Pylx4sHQfoLfX-14" style="edgeStyle=orthogonalEdgeStyle;rounded=0;orthogonalLoop=1;jettySize=auto;html=1;entryX=0.558;entryY=0.05;entryDx=0;entryDy=0;entryPerimeter=0;endArrow=block;endFill=0;labelBackgroundColor=none;strokeColor=#E07A5F;fontColor=default;" edge="1" parent="WIyWlLk6GJQsqaUBKTNV-1" source="0UIjZN4Pylx4sHQfoLfX-13" target="0UIjZN4Pylx4sHQfoLfX-6">
          <mxGeometry relative="1" as="geometry" />
        </mxCell>
        <mxCell id="0UIjZN4Pylx4sHQfoLfX-15" value="Yes" style="edgeLabel;html=1;align=center;verticalAlign=middle;resizable=0;points=[];labelBackgroundColor=none;fontColor=#393C56;" vertex="1" connectable="0" parent="0UIjZN4Pylx4sHQfoLfX-14">
          <mxGeometry x="-0.0141" y="2" relative="1" as="geometry">
            <mxPoint x="-249" y="-88" as="offset" />
          </mxGeometry>
        </mxCell>
        <mxCell id="0UIjZN4Pylx4sHQfoLfX-17" value="No" style="edgeLabel;html=1;align=center;verticalAlign=middle;resizable=0;points=[];labelBackgroundColor=none;fontColor=#393C56;" vertex="1" connectable="0" parent="WIyWlLk6GJQsqaUBKTNV-1">
          <mxGeometry x="509.99851481249857" y="130.00039490245285" as="geometry">
            <mxPoint x="-21" y="18" as="offset" />
          </mxGeometry>
        </mxCell>
        <mxCell id="0UIjZN4Pylx4sHQfoLfX-25" style="edgeStyle=orthogonalEdgeStyle;rounded=0;orthogonalLoop=1;jettySize=auto;html=1;entryX=0.25;entryY=1;entryDx=0;entryDy=0;labelBackgroundColor=none;strokeColor=#E07A5F;fontColor=default;" edge="1" parent="WIyWlLk6GJQsqaUBKTNV-1" source="0UIjZN4Pylx4sHQfoLfX-23" target="0UIjZN4Pylx4sHQfoLfX-0">
          <mxGeometry relative="1" as="geometry">
            <mxPoint x="500" y="240" as="targetPoint" />
          </mxGeometry>
        </mxCell>
        <mxCell id="0UIjZN4Pylx4sHQfoLfX-28" value="Yes" style="edgeLabel;html=1;align=center;verticalAlign=middle;resizable=0;points=[];labelBackgroundColor=none;fontColor=#393C56;" vertex="1" connectable="0" parent="0UIjZN4Pylx4sHQfoLfX-25">
          <mxGeometry x="0.2311" y="-1" relative="1" as="geometry">
            <mxPoint x="-120" y="9" as="offset" />
          </mxGeometry>
        </mxCell>
        <mxCell id="0UIjZN4Pylx4sHQfoLfX-26" style="edgeStyle=orthogonalEdgeStyle;rounded=0;orthogonalLoop=1;jettySize=auto;html=1;entryX=1;entryY=0;entryDx=0;entryDy=0;labelBackgroundColor=none;strokeColor=#E07A5F;fontColor=default;" edge="1" parent="WIyWlLk6GJQsqaUBKTNV-1" source="0UIjZN4Pylx4sHQfoLfX-23" target="WIyWlLk6GJQsqaUBKTNV-12">
          <mxGeometry relative="1" as="geometry">
            <Array as="points">
              <mxPoint x="375" y="480" />
            </Array>
          </mxGeometry>
        </mxCell>
        <mxCell id="0UIjZN4Pylx4sHQfoLfX-27" value="No" style="edgeLabel;html=1;align=center;verticalAlign=middle;resizable=0;points=[];labelBackgroundColor=none;fontColor=#393C56;" vertex="1" connectable="0" parent="0UIjZN4Pylx4sHQfoLfX-26">
          <mxGeometry x="-0.6129" y="1" relative="1" as="geometry">
            <mxPoint x="14" y="-20" as="offset" />
          </mxGeometry>
        </mxCell>
        <mxCell id="0UIjZN4Pylx4sHQfoLfX-23" value="User selects &quot;Disconnect&quot; option" style="rhombus;whiteSpace=wrap;html=1;shadow=0;fontFamily=Helvetica;fontSize=12;align=center;strokeWidth=1;spacing=6;spacingTop=-4;labelBackgroundColor=none;fillColor=#F2CC8F;strokeColor=#E07A5F;fontColor=#393C56;" vertex="1" parent="WIyWlLk6GJQsqaUBKTNV-1">
          <mxGeometry x="320" y="330" width="110" height="90" as="geometry" />
        </mxCell>
        <mxCell id="0UIjZN4Pylx4sHQfoLfX-35" style="edgeStyle=orthogonalEdgeStyle;rounded=0;orthogonalLoop=1;jettySize=auto;html=1;entryX=0.5;entryY=0;entryDx=0;entryDy=0;labelBackgroundColor=none;strokeColor=#E07A5F;fontColor=default;" edge="1" parent="WIyWlLk6GJQsqaUBKTNV-1" source="0UIjZN4Pylx4sHQfoLfX-29" target="0UIjZN4Pylx4sHQfoLfX-34">
          <mxGeometry relative="1" as="geometry" />
        </mxCell>
        <mxCell id="0UIjZN4Pylx4sHQfoLfX-29" value="Show &quot;Reading...&quot; text" style="rounded=1;whiteSpace=wrap;html=1;fontSize=12;glass=0;strokeWidth=1;shadow=0;labelBackgroundColor=none;fillColor=#F2CC8F;strokeColor=#E07A5F;fontColor=#393C56;" vertex="1" parent="WIyWlLk6GJQsqaUBKTNV-1">
          <mxGeometry x="15" y="770" width="120" height="40" as="geometry" />
        </mxCell>
        <mxCell id="0UIjZN4Pylx4sHQfoLfX-36" style="edgeStyle=orthogonalEdgeStyle;rounded=0;orthogonalLoop=1;jettySize=auto;html=1;endArrow=block;endFill=0;entryX=0.5;entryY=1;entryDx=0;entryDy=0;labelBackgroundColor=none;strokeColor=#E07A5F;fontColor=default;" edge="1" parent="WIyWlLk6GJQsqaUBKTNV-1" source="0UIjZN4Pylx4sHQfoLfX-34" target="0UIjZN4Pylx4sHQfoLfX-38">
          <mxGeometry relative="1" as="geometry">
            <mxPoint x="300" y="790" as="targetPoint" />
            <Array as="points">
              <mxPoint x="240" y="905" />
            </Array>
          </mxGeometry>
        </mxCell>
        <mxCell id="0UIjZN4Pylx4sHQfoLfX-37" value="No" style="edgeLabel;html=1;align=center;verticalAlign=middle;resizable=0;points=[];labelBackgroundColor=none;fontColor=#393C56;" vertex="1" connectable="0" parent="0UIjZN4Pylx4sHQfoLfX-36">
          <mxGeometry x="0.1417" relative="1" as="geometry">
            <mxPoint x="-105" y="22" as="offset" />
          </mxGeometry>
        </mxCell>
        <mxCell id="0UIjZN4Pylx4sHQfoLfX-41" style="edgeStyle=orthogonalEdgeStyle;rounded=0;orthogonalLoop=1;jettySize=auto;html=1;entryX=0.5;entryY=0;entryDx=0;entryDy=0;endArrow=block;endFill=0;labelBackgroundColor=none;strokeColor=#E07A5F;fontColor=default;" edge="1" parent="WIyWlLk6GJQsqaUBKTNV-1" source="0UIjZN4Pylx4sHQfoLfX-34" target="0UIjZN4Pylx4sHQfoLfX-40">
          <mxGeometry relative="1" as="geometry" />
        </mxCell>
        <mxCell id="0UIjZN4Pylx4sHQfoLfX-42" value="Yes" style="edgeLabel;html=1;align=center;verticalAlign=middle;resizable=0;points=[];labelBackgroundColor=none;fontColor=#393C56;" vertex="1" connectable="0" parent="0UIjZN4Pylx4sHQfoLfX-41">
          <mxGeometry x="-0.2333" y="-3" relative="1" as="geometry">
            <mxPoint x="-12" y="-13" as="offset" />
          </mxGeometry>
        </mxCell>
        <mxCell id="0UIjZN4Pylx4sHQfoLfX-34" value="Valid data received" style="rhombus;whiteSpace=wrap;html=1;shadow=0;fontFamily=Helvetica;fontSize=12;align=center;strokeWidth=1;spacing=6;spacingTop=-4;labelBackgroundColor=none;fillColor=#F2CC8F;strokeColor=#E07A5F;fontColor=#393C56;" vertex="1" parent="WIyWlLk6GJQsqaUBKTNV-1">
          <mxGeometry x="20" y="860" width="110" height="90" as="geometry" />
        </mxCell>
        <mxCell id="0UIjZN4Pylx4sHQfoLfX-39" style="edgeStyle=orthogonalEdgeStyle;rounded=0;orthogonalLoop=1;jettySize=auto;html=1;entryX=1;entryY=0.5;entryDx=0;entryDy=0;labelBackgroundColor=none;strokeColor=#E07A5F;fontColor=default;" edge="1" parent="WIyWlLk6GJQsqaUBKTNV-1" source="0UIjZN4Pylx4sHQfoLfX-38" target="0UIjZN4Pylx4sHQfoLfX-29">
          <mxGeometry relative="1" as="geometry" />
        </mxCell>
        <mxCell id="0UIjZN4Pylx4sHQfoLfX-38" value="Reply with &quot;RETRY string" style="rounded=1;whiteSpace=wrap;html=1;fontSize=12;glass=0;strokeWidth=1;shadow=0;labelBackgroundColor=none;fillColor=#F2CC8F;strokeColor=#E07A5F;fontColor=#393C56;" vertex="1" parent="WIyWlLk6GJQsqaUBKTNV-1">
          <mxGeometry x="180" y="770" width="120" height="40" as="geometry" />
        </mxCell>
        <mxCell id="0UIjZN4Pylx4sHQfoLfX-44" style="edgeStyle=orthogonalEdgeStyle;rounded=0;orthogonalLoop=1;jettySize=auto;html=1;entryX=0.5;entryY=0;entryDx=0;entryDy=0;labelBackgroundColor=none;strokeColor=#E07A5F;fontColor=default;" edge="1" parent="WIyWlLk6GJQsqaUBKTNV-1" source="0UIjZN4Pylx4sHQfoLfX-40" target="0UIjZN4Pylx4sHQfoLfX-43">
          <mxGeometry relative="1" as="geometry" />
        </mxCell>
        <mxCell id="0UIjZN4Pylx4sHQfoLfX-40" value="Reply with &quot;ACK string" style="rounded=1;whiteSpace=wrap;html=1;fontSize=12;glass=0;strokeWidth=1;shadow=0;labelBackgroundColor=none;fillColor=#F2CC8F;strokeColor=#E07A5F;fontColor=#393C56;" vertex="1" parent="WIyWlLk6GJQsqaUBKTNV-1">
          <mxGeometry x="15" y="1010" width="120" height="40" as="geometry" />
        </mxCell>
        <mxCell id="0UIjZN4Pylx4sHQfoLfX-46" style="edgeStyle=orthogonalEdgeStyle;rounded=0;orthogonalLoop=1;jettySize=auto;html=1;entryX=0.5;entryY=0;entryDx=0;entryDy=0;labelBackgroundColor=none;strokeColor=#E07A5F;fontColor=default;" edge="1" parent="WIyWlLk6GJQsqaUBKTNV-1" source="0UIjZN4Pylx4sHQfoLfX-43" target="0UIjZN4Pylx4sHQfoLfX-45">
          <mxGeometry relative="1" as="geometry" />
        </mxCell>
        <mxCell id="0UIjZN4Pylx4sHQfoLfX-43" value="Show &quot;Processing&quot; text" style="rounded=1;whiteSpace=wrap;html=1;fontSize=12;glass=0;strokeWidth=1;shadow=0;labelBackgroundColor=none;fillColor=#F2CC8F;strokeColor=#E07A5F;fontColor=#393C56;" vertex="1" parent="WIyWlLk6GJQsqaUBKTNV-1">
          <mxGeometry x="15" y="1100" width="120" height="40" as="geometry" />
        </mxCell>
        <mxCell id="0UIjZN4Pylx4sHQfoLfX-47" style="edgeStyle=orthogonalEdgeStyle;rounded=0;orthogonalLoop=1;jettySize=auto;html=1;endArrow=block;endFill=0;entryX=0.25;entryY=1;entryDx=0;entryDy=0;labelBackgroundColor=none;strokeColor=#E07A5F;fontColor=default;" edge="1" parent="WIyWlLk6GJQsqaUBKTNV-1" source="0UIjZN4Pylx4sHQfoLfX-45" target="WIyWlLk6GJQsqaUBKTNV-12">
          <mxGeometry relative="1" as="geometry">
            <mxPoint x="160" y="570" as="targetPoint" />
            <Array as="points">
              <mxPoint x="320" y="1250" />
              <mxPoint x="320" y="720" />
              <mxPoint x="190" y="720" />
            </Array>
          </mxGeometry>
        </mxCell>
        <mxCell id="0UIjZN4Pylx4sHQfoLfX-48" value="Yes" style="edgeLabel;html=1;align=center;verticalAlign=middle;resizable=0;points=[];labelBackgroundColor=none;fontColor=#393C56;" vertex="1" connectable="0" parent="0UIjZN4Pylx4sHQfoLfX-47">
          <mxGeometry x="0.0716" relative="1" as="geometry">
            <mxPoint x="-150" y="374" as="offset" />
          </mxGeometry>
        </mxCell>
        <mxCell id="0UIjZN4Pylx4sHQfoLfX-50" style="edgeStyle=orthogonalEdgeStyle;rounded=0;orthogonalLoop=1;jettySize=auto;html=1;entryX=0.5;entryY=0;entryDx=0;entryDy=0;labelBackgroundColor=none;strokeColor=#E07A5F;fontColor=default;" edge="1" parent="WIyWlLk6GJQsqaUBKTNV-1" source="0UIjZN4Pylx4sHQfoLfX-45" target="0UIjZN4Pylx4sHQfoLfX-49">
          <mxGeometry relative="1" as="geometry" />
        </mxCell>
        <mxCell id="0UIjZN4Pylx4sHQfoLfX-70" value="No" style="edgeLabel;html=1;align=center;verticalAlign=middle;resizable=0;points=[];labelBackgroundColor=none;fontColor=#393C56;" vertex="1" connectable="0" parent="0UIjZN4Pylx4sHQfoLfX-50">
          <mxGeometry x="-0.154" y="2" relative="1" as="geometry">
            <mxPoint x="13" y="-20" as="offset" />
          </mxGeometry>
        </mxCell>
        <mxCell id="0UIjZN4Pylx4sHQfoLfX-45" value="Data is within&amp;nbsp;&lt;div&gt;allowed&lt;div&gt;range for particular vital sign&lt;/div&gt;&lt;/div&gt;" style="rhombus;whiteSpace=wrap;html=1;shadow=0;fontFamily=Helvetica;fontSize=12;align=center;strokeWidth=1;spacing=6;spacingTop=-4;labelBackgroundColor=none;fillColor=#F2CC8F;strokeColor=#E07A5F;fontColor=#393C56;" vertex="1" parent="WIyWlLk6GJQsqaUBKTNV-1">
          <mxGeometry x="-5" y="1180" width="160" height="140" as="geometry" />
        </mxCell>
        <mxCell id="0UIjZN4Pylx4sHQfoLfX-71" style="edgeStyle=orthogonalEdgeStyle;rounded=0;orthogonalLoop=1;jettySize=auto;html=1;labelBackgroundColor=none;strokeColor=#E07A5F;fontColor=default;" edge="1" parent="WIyWlLk6GJQsqaUBKTNV-1" source="0UIjZN4Pylx4sHQfoLfX-49" target="0UIjZN4Pylx4sHQfoLfX-51">
          <mxGeometry relative="1" as="geometry" />
        </mxCell>
        <mxCell id="0UIjZN4Pylx4sHQfoLfX-49" value="Show &quot;Transmitting&quot; text" style="rounded=1;whiteSpace=wrap;html=1;fontSize=12;glass=0;strokeWidth=1;shadow=0;labelBackgroundColor=none;fillColor=#F2CC8F;strokeColor=#E07A5F;fontColor=#393C56;" vertex="1" parent="WIyWlLk6GJQsqaUBKTNV-1">
          <mxGeometry x="15" y="1390" width="120" height="40" as="geometry" />
        </mxCell>
        <mxCell id="0UIjZN4Pylx4sHQfoLfX-59" style="edgeStyle=orthogonalEdgeStyle;rounded=0;orthogonalLoop=1;jettySize=auto;html=1;entryX=0.5;entryY=1;entryDx=0;entryDy=0;endArrow=block;endFill=0;labelBackgroundColor=none;strokeColor=#E07A5F;fontColor=default;" edge="1" parent="WIyWlLk6GJQsqaUBKTNV-1" source="0UIjZN4Pylx4sHQfoLfX-51" target="0UIjZN4Pylx4sHQfoLfX-55">
          <mxGeometry relative="1" as="geometry" />
        </mxCell>
        <mxCell id="0UIjZN4Pylx4sHQfoLfX-60" value="No" style="edgeLabel;html=1;align=center;verticalAlign=middle;resizable=0;points=[];labelBackgroundColor=none;fontColor=#393C56;" vertex="1" connectable="0" parent="0UIjZN4Pylx4sHQfoLfX-59">
          <mxGeometry x="-0.5467" y="-2" relative="1" as="geometry">
            <mxPoint x="-75" y="8" as="offset" />
          </mxGeometry>
        </mxCell>
        <mxCell id="0UIjZN4Pylx4sHQfoLfX-72" value="No" style="edgeLabel;html=1;align=center;verticalAlign=middle;resizable=0;points=[];labelBackgroundColor=none;fontColor=#393C56;" vertex="1" connectable="0" parent="0UIjZN4Pylx4sHQfoLfX-59">
          <mxGeometry x="-0.6917" y="-2" relative="1" as="geometry">
            <mxPoint x="-24" y="-12" as="offset" />
          </mxGeometry>
        </mxCell>
        <mxCell id="0UIjZN4Pylx4sHQfoLfX-51" value="Transmit data via&lt;div&gt;LoRaWAN to&amp;nbsp;&lt;/div&gt;&lt;div&gt;cloud successful&lt;/div&gt;" style="rhombus;whiteSpace=wrap;html=1;shadow=0;fontFamily=Helvetica;fontSize=12;align=center;strokeWidth=1;spacing=6;spacingTop=-4;labelBackgroundColor=none;fillColor=#F2CC8F;strokeColor=#E07A5F;fontColor=#393C56;" vertex="1" parent="WIyWlLk6GJQsqaUBKTNV-1">
          <mxGeometry x="350" y="1020" width="160" height="140" as="geometry" />
        </mxCell>
        <mxCell id="0UIjZN4Pylx4sHQfoLfX-61" style="edgeStyle=orthogonalEdgeStyle;rounded=0;orthogonalLoop=1;jettySize=auto;html=1;entryX=0.75;entryY=1;entryDx=0;entryDy=0;exitX=0.5;exitY=0;exitDx=0;exitDy=0;labelBackgroundColor=none;strokeColor=#E07A5F;fontColor=default;" edge="1" parent="WIyWlLk6GJQsqaUBKTNV-1" source="0UIjZN4Pylx4sHQfoLfX-55" target="WIyWlLk6GJQsqaUBKTNV-12">
          <mxGeometry relative="1" as="geometry">
            <mxPoint x="310" y="560" as="targetPoint" />
            <Array as="points">
              <mxPoint x="580" y="670" />
              <mxPoint x="250" y="670" />
            </Array>
          </mxGeometry>
        </mxCell>
        <mxCell id="0UIjZN4Pylx4sHQfoLfX-55" value="Add data to queue" style="rounded=1;whiteSpace=wrap;html=1;fontSize=12;glass=0;strokeWidth=1;shadow=0;labelBackgroundColor=none;fillColor=#F2CC8F;strokeColor=#E07A5F;fontColor=#393C56;" vertex="1" parent="WIyWlLk6GJQsqaUBKTNV-1">
          <mxGeometry x="520" y="900" width="120" height="40" as="geometry" />
        </mxCell>
        <mxCell id="0UIjZN4Pylx4sHQfoLfX-57" style="edgeStyle=orthogonalEdgeStyle;rounded=0;orthogonalLoop=1;jettySize=auto;html=1;endArrow=block;endFill=0;entryX=0.5;entryY=1;entryDx=0;entryDy=0;exitX=0.5;exitY=0;exitDx=0;exitDy=0;labelBackgroundColor=none;strokeColor=#E07A5F;fontColor=default;" edge="1" parent="WIyWlLk6GJQsqaUBKTNV-1" source="0UIjZN4Pylx4sHQfoLfX-51" target="WIyWlLk6GJQsqaUBKTNV-12">
          <mxGeometry relative="1" as="geometry">
            <mxPoint x="210" y="560" as="targetPoint" />
            <Array as="points">
              <mxPoint x="430" y="690" />
              <mxPoint x="220" y="690" />
            </Array>
          </mxGeometry>
        </mxCell>
        <mxCell id="0UIjZN4Pylx4sHQfoLfX-58" value="Yes" style="edgeLabel;html=1;align=center;verticalAlign=middle;resizable=0;points=[];labelBackgroundColor=none;fontColor=#393C56;" vertex="1" connectable="0" parent="0UIjZN4Pylx4sHQfoLfX-57">
          <mxGeometry x="-0.4442" y="-5" relative="1" as="geometry">
            <mxPoint x="15" y="187" as="offset" />
          </mxGeometry>
        </mxCell>
        <mxCell id="0UIjZN4Pylx4sHQfoLfX-66" style="edgeStyle=orthogonalEdgeStyle;rounded=0;orthogonalLoop=1;jettySize=auto;html=1;entryX=0.25;entryY=0;entryDx=0;entryDy=0;endArrow=block;endFill=0;labelBackgroundColor=none;strokeColor=#E07A5F;fontColor=default;" edge="1" parent="WIyWlLk6GJQsqaUBKTNV-1" source="0UIjZN4Pylx4sHQfoLfX-64" target="WIyWlLk6GJQsqaUBKTNV-12">
          <mxGeometry relative="1" as="geometry" />
        </mxCell>
        <mxCell id="0UIjZN4Pylx4sHQfoLfX-67" value="Yes" style="edgeLabel;html=1;align=center;verticalAlign=middle;resizable=0;points=[];labelBackgroundColor=none;fontColor=#393C56;" vertex="1" connectable="0" parent="0UIjZN4Pylx4sHQfoLfX-66">
          <mxGeometry x="-0.5429" y="-2" relative="1" as="geometry">
            <mxPoint x="-46" y="-12" as="offset" />
          </mxGeometry>
        </mxCell>
        <mxCell id="0UIjZN4Pylx4sHQfoLfX-68" style="edgeStyle=orthogonalEdgeStyle;rounded=0;orthogonalLoop=1;jettySize=auto;html=1;entryX=0;entryY=0.25;entryDx=0;entryDy=0;endArrow=block;endFill=0;labelBackgroundColor=none;strokeColor=#E07A5F;fontColor=default;" edge="1" parent="WIyWlLk6GJQsqaUBKTNV-1" source="0UIjZN4Pylx4sHQfoLfX-64" target="0UIjZN4Pylx4sHQfoLfX-49">
          <mxGeometry relative="1" as="geometry">
            <mxPoint x="-170" y="920" as="targetPoint" />
            <Array as="points">
              <mxPoint x="-110" y="385" />
              <mxPoint x="-110" y="1400" />
            </Array>
          </mxGeometry>
        </mxCell>
        <mxCell id="0UIjZN4Pylx4sHQfoLfX-69" value="No" style="edgeLabel;html=1;align=center;verticalAlign=middle;resizable=0;points=[];labelBackgroundColor=none;fontColor=#393C56;" vertex="1" connectable="0" parent="0UIjZN4Pylx4sHQfoLfX-68">
          <mxGeometry x="-0.9644" relative="1" as="geometry">
            <mxPoint x="11" y="-10" as="offset" />
          </mxGeometry>
        </mxCell>
        <mxCell id="0UIjZN4Pylx4sHQfoLfX-64" value="Queue is empty" style="rhombus;whiteSpace=wrap;html=1;shadow=0;fontFamily=Helvetica;fontSize=12;align=center;strokeWidth=1;spacing=6;spacingTop=-4;labelBackgroundColor=none;fillColor=#F2CC8F;strokeColor=#E07A5F;fontColor=#393C56;" vertex="1" parent="WIyWlLk6GJQsqaUBKTNV-1">
          <mxGeometry x="-70" y="340" width="110" height="90" as="geometry" />
        </mxCell>
      </root>
    </mxGraphModel>
  </diagram>
</mxfile>
